#define repeat_width 16
#define repeat_height 16
static unsigned char repeat_bits[] = {
   0x00, 0x00, 0x00, 0x00, 0x00, 0x00, 0x00, 0x00, 0x00, 0x01, 0xf8, 0x13,
   0x0c, 0x31, 0x04, 0x20, 0x04, 0x20, 0x8c, 0x30, 0xc8, 0x1f, 0x80, 0x00,
   0x00, 0x00, 0x00, 0x00, 0x00, 0x00, 0x00, 0x00
};
